<svg xmlns="http://www.w3.org/2000/svg" viewBox="0 0 48 48"><title>07-law</title><g id="_07-law" data-name="07-law"><path d="M25,48a1,1,0,0,1-.447-.1l-16-8A1,1,0,0,1,8,39a3.8,3.8,0,0,1,5.1-3.573L20.973,38.9l.5-.25A3.036,3.036,0,0,1,21,37.013,2.948,2.948,0,0,1,23.888,34H27.04c.634-.909,2.416-2,7.31-2,7.1,0,7.65,2.3,7.65,3V45a1,1,0,0,1-.868.991C38.607,46.327,25.967,48,25,48ZM10.091,38.427l15.118,7.559c1.506-.129,9.364-1.144,14.791-1.862V35.143C39.847,34.95,38.86,34,34.35,34c-4.661,0-5.559,1.014-5.662,1.16A1,1,0,0,1,27.7,36H23.888a1.007,1.007,0,0,0,0,2H31v2H23.888a2.878,2.878,0,0,1-.545-.053l-1.9.948a1,1,0,0,1-.85.02l-8.241-3.633a1.811,1.811,0,0,0-2.265,1.145ZM28.7,35Zm0,0h0Zm0,0h0Z"/><path d="M47,47H41a1,1,0,0,1-1-1V33a1,1,0,0,1,1-1h6a1,1,0,0,1,1,1V46A1,1,0,0,1,47,47Zm-5-2h4V34H42Z"/><path d="M13,30a7.008,7.008,0,0,1-7-7,1,1,0,0,1,1-1H19a1,1,0,0,1,1,1A7.008,7.008,0,0,1,13,30ZM8.1,24a5,5,0,0,0,9.8,0Z"/><path d="M18.081,23.394,13,11.539,7.919,23.394l-1.838-.788,6-14a1,1,0,0,1,1.838,0l6,14Z"/><path d="M35,30a7.008,7.008,0,0,1-7-7,1,1,0,0,1,1-1H41a1,1,0,0,1,1,1A7.008,7.008,0,0,1,35,30Zm-4.9-6a5,5,0,0,0,9.8,0Z"/><path d="M40.081,23.394,35,11.539,29.919,23.394l-1.838-.788,6-14a1,1,0,0,1,1.838,0l6,14Z"/><rect x="13" y="8" width="22" height="2"/><path d="M24,6a3,3,0,1,1,3-3A3,3,0,0,1,24,6Zm0-4a1,1,0,1,0,1,1A1,1,0,0,0,24,2Z"/><rect x="23" y="5" width="2" height="25"/><path d="M16.707,38.707l-1.414-1.414,8-8a1,1,0,0,1,1.414,0l4,4-1.414,1.414L24,31.414Z"/></g></svg>