<svg xmlns="http://www.w3.org/2000/svg" viewBox="0 8.859999656677246 366.989990234375 46.93000030517578" data-asc="0.9052734375" width="366.989990234375" height="46.93000030517578"><defs/><g><g><g transform="translate(0, 0)"><path d="M0 33.76L4.47 33.37Q4.79 36.06 5.94 37.78Q7.10 39.50 9.55 40.56Q11.99 41.63 15.04 41.63Q17.75 41.63 19.82 40.82Q21.90 40.01 22.91 38.61Q23.93 37.21 23.93 35.55Q23.93 33.86 22.95 32.60Q21.97 31.35 19.73 30.49Q18.29 29.93 13.35 28.75Q8.42 27.56 6.45 26.51Q3.88 25.17 2.62 23.18Q1.37 21.19 1.37 18.73Q1.37 16.02 2.91 13.66Q4.44 11.30 7.40 10.08Q10.35 8.86 13.96 8.86Q17.94 8.86 20.98 10.14Q24.02 11.43 25.66 13.92Q27.29 16.41 27.42 19.56L22.88 19.90Q22.51 16.50 20.40 14.77Q18.29 13.04 14.16 13.04Q9.86 13.04 7.90 14.61Q5.93 16.19 5.93 18.41Q5.93 20.34 7.32 21.58Q8.69 22.83 14.47 24.13Q20.24 25.44 22.39 26.42Q25.51 27.86 27.00 30.07Q28.49 32.28 28.49 35.16Q28.49 38.01 26.86 40.54Q25.22 43.07 22.16 44.47Q19.09 45.87 15.26 45.87Q10.40 45.87 7.12 44.46Q3.83 43.04 1.97 40.20Q0.10 37.35 0 33.76ZM33.20 35.82L37.60 35.23Q38.35 38.96 40.17 40.61Q41.99 42.26 44.60 42.26Q47.71 42.26 49.84 40.11Q51.98 37.96 51.98 34.79Q51.98 31.76 50 29.80Q48.02 27.83 44.97 27.83Q43.73 27.83 41.87 28.32L42.36 24.46Q42.80 24.51 43.07 24.51Q45.87 24.51 48.12 23.05Q50.37 21.58 50.37 18.53Q50.37 16.11 48.73 14.53Q47.09 12.94 44.51 12.94Q41.94 12.94 40.23 14.55Q38.53 16.16 38.04 19.38L33.64 18.60Q34.45 14.18 37.30 11.76Q40.16 9.33 44.41 9.33Q47.34 9.33 49.80 10.58Q52.27 11.84 53.58 14.01Q54.88 16.19 54.88 18.63Q54.88 20.95 53.64 22.85Q52.39 24.76 49.95 25.88Q53.13 26.61 54.88 28.92Q56.64 31.23 56.64 34.69Q56.64 39.38 53.22 42.64Q49.80 45.90 44.58 45.90Q39.87 45.90 36.76 43.09Q33.64 40.28 33.20 35.82ZM75.07 45.26L75.07 36.69L59.55 36.69L59.55 32.67L75.88 9.47L79.47 9.47L79.47 32.67L84.30 32.67L84.30 36.69L79.47 36.69L79.47 45.26L75.07 45.26M75.07 32.67L75.07 16.53L63.87 32.67L75.07 32.67ZM88.31 34.52L88.31 30.10L101.81 30.10L101.81 34.52L88.31 34.52ZM107.03 45.26L107.03 9.47L111.77 9.47L111.77 41.04L129.39 41.04L129.39 45.26L107.03 45.26ZM151.39 42.07Q148.95 44.14 146.69 45.00Q144.43 45.85 141.85 45.85Q137.57 45.85 135.28 43.76Q132.98 41.67 132.98 38.43Q132.98 36.52 133.85 34.95Q134.72 33.37 136.12 32.42Q137.52 31.47 139.28 30.98Q140.58 30.64 143.19 30.32Q148.51 29.69 151.03 28.81Q151.05 27.91 151.05 27.66Q151.05 24.98 149.80 23.88Q148.12 22.39 144.80 22.39Q141.70 22.39 140.22 23.47Q138.75 24.56 138.04 27.32L133.74 26.73Q134.33 23.97 135.67 22.28Q137.01 20.58 139.55 19.67Q142.09 18.75 145.43 18.75Q148.75 18.75 150.83 19.53Q152.91 20.31 153.88 21.50Q154.86 22.68 155.25 24.49Q155.47 25.61 155.47 28.54L155.47 34.40Q155.47 40.53 155.75 42.15Q156.03 43.77 156.86 45.26L152.27 45.26Q151.59 43.90 151.39 42.07M151.03 32.25Q148.63 33.23 143.85 33.91Q141.14 34.30 140.01 34.79Q138.89 35.28 138.28 36.22Q137.67 37.16 137.67 38.31Q137.67 40.06 139.00 41.24Q140.33 42.41 142.90 42.41Q145.43 42.41 147.41 41.30Q149.39 40.19 150.32 38.26Q151.03 36.77 151.03 33.86L151.03 32.25ZM167.07 45.26L159.13 19.34L163.67 19.34L167.80 34.30L169.34 39.87Q169.43 39.45 170.68 34.52L174.80 19.34L179.32 19.34L183.20 34.38L184.50 39.33L185.99 34.33L190.43 19.34L194.70 19.34L186.60 45.26L182.03 45.26L177.91 29.74L176.90 25.32L171.66 45.26L167.07 45.26ZM196.68 34.52L196.68 30.10L210.18 30.10L210.18 34.52L196.68 34.52ZM215.60 45.26L215.60 9.47L229.10 9.47Q232.67 9.47 234.55 9.81Q237.18 10.25 238.96 11.49Q240.75 12.72 241.83 14.94Q242.92 17.16 242.92 19.82Q242.92 24.39 240.01 27.55Q237.11 30.71 229.52 30.71L220.34 30.71L220.34 45.26L215.60 45.26M220.34 26.49L229.59 26.49Q234.18 26.49 236.11 24.78Q238.04 23.07 238.04 19.97Q238.04 17.72 236.90 16.13Q235.77 14.53 233.91 14.01Q232.71 13.70 229.49 13.70L220.34 13.70L220.34 26.49ZM248.34 45.26L248.34 19.34L252.29 19.34L252.29 23.27Q253.81 20.51 255.09 19.63Q256.37 18.75 257.91 18.75Q260.13 18.75 262.43 20.17L260.91 24.24Q259.30 23.29 257.69 23.29Q256.25 23.29 255.10 24.16Q253.96 25.02 253.47 26.56Q252.73 28.91 252.73 31.69L252.73 45.26L248.34 45.26ZM263.40 32.30Q263.40 25.10 267.41 21.63Q270.75 18.75 275.56 18.75Q280.91 18.75 284.30 22.25Q287.70 25.76 287.70 31.93Q287.70 36.94 286.19 39.81Q284.69 42.68 281.82 44.26Q278.96 45.85 275.56 45.85Q270.12 45.85 266.76 42.36Q263.40 38.87 263.40 32.30M267.92 32.30Q267.92 37.28 270.09 39.76Q272.27 42.24 275.56 42.24Q278.83 42.24 281.01 39.75Q283.18 37.26 283.18 32.15Q283.18 27.34 280.99 24.87Q278.81 22.39 275.56 22.39Q272.27 22.39 270.09 24.85Q267.92 27.32 267.92 32.30ZM292.82 14.58L292.82 9.47L297.22 9.47L297.22 14.58L292.82 14.58M287.26 55.32L288.09 51.59Q289.40 51.93 290.16 51.93Q291.50 51.93 292.16 51.04Q292.82 50.15 292.82 46.58L292.82 19.34L297.22 19.34L297.22 46.68Q297.22 51.46 295.97 53.34Q294.38 55.79 290.70 55.79Q288.92 55.79 287.26 55.32ZM321.70 36.91L326.25 37.48Q325.17 41.46 322.27 43.65Q319.36 45.85 314.84 45.85Q309.16 45.85 305.82 42.35Q302.49 38.84 302.49 32.52Q302.49 25.98 305.86 22.36Q309.23 18.75 314.60 18.75Q319.80 18.75 323.10 22.29Q326.39 25.83 326.39 32.25Q326.39 32.64 326.37 33.42L307.03 33.42Q307.28 37.70 309.45 39.97Q311.62 42.24 314.87 42.24Q317.29 42.24 318.99 40.97Q320.70 39.70 321.70 36.91M307.28 29.81L321.75 29.81Q321.46 26.54 320.09 24.90Q317.99 22.36 314.65 22.36Q311.62 22.36 309.56 24.39Q307.50 26.42 307.28 29.81ZM348.68 35.77L353.00 36.33Q352.29 40.80 349.38 43.32Q346.46 45.85 342.21 45.85Q336.89 45.85 333.65 42.37Q330.42 38.89 330.42 32.40Q330.42 28.20 331.81 25.05Q333.20 21.90 336.05 20.32Q338.89 18.75 342.24 18.75Q346.46 18.75 349.15 20.89Q351.83 23.02 352.59 26.95L348.32 27.61Q347.71 25 346.15 23.68Q344.60 22.36 342.41 22.36Q339.09 22.36 337.01 24.74Q334.94 27.12 334.94 32.28Q334.94 37.50 336.94 39.87Q338.94 42.24 342.16 42.24Q344.75 42.24 346.48 40.65Q348.22 39.06 348.68 35.77ZM366.36 41.33L366.99 45.21Q365.14 45.61 363.67 45.61Q361.28 45.61 359.96 44.85Q358.64 44.09 358.11 42.86Q357.57 41.63 357.57 37.67L357.57 22.75L354.35 22.75L354.35 19.34L357.57 19.34L357.57 12.92L361.94 10.28L361.94 19.34L366.36 19.34L366.36 22.75L361.94 22.75L361.94 37.92Q361.94 39.79 362.17 40.33Q362.40 40.87 362.93 41.19Q363.45 41.50 364.43 41.50Q365.16 41.50 366.36 41.33Z"/></g></g></g></svg>
